HIERARCHY
ROOT Hips
{
  OFFSET 45.4777 93.5152 -1.43375
  CHANNELS 6 Xposition Yposition Zposition Zrotation Xrotation Yrotation
  JOINT RightUpLeg
  {
    OFFSET -8.9458 -8.66707 0.101652
    CHANNELS 3 Zrotation Xrotation Yrotation
    JOINT RightLeg
    {
      OFFSET 0 -44.4227 1.3727
      CHANNELS 3 Zrotation Xrotation Yrotation
      JOINT RightFoot
      {
        OFFSET 0.253549 -42.0924 -1.46059
        CHANNELS 3 Zrotation Xrotation Yrotation
        JOINT RightToes
        {
          OFFSET 0.04 -4.41509 8.4991
          CHANNELS 3 Zrotation Xrotation Yrotation
          End Site
          {
            OFFSET -0.08 -0.137448 9.77979
          }
        }
      }
    }
  }
  JOINT Spine
  {
    OFFSET 0 11.8905 0
    CHANNELS 3 Zrotation Xrotation Yrotation
    JOINT Spine1
    {
      OFFSET 0 25.6574 0.127663
      CHANNELS 3 Zrotation Xrotation Yrotation
      JOINT HEad
      {
        OFFSET 0 8.73416 0.011341
        CHANNELS 3 Zrotation Xrotation Yrotation
        End Site
        {
          OFFSET -0.29 12.7742 2.51395
        }
      }
      JOINT LeftShoulder1
      {
        OFFSET 8.99 -0.362252 -0.22
        CHANNELS 3 Zrotation Xrotation Yrotation
        JOINT LeftArm
        {
          OFFSET 10.2827 -0.00338 0.322123
          CHANNELS 3 Zrotation Xrotation Yrotation
          JOINT LeftForeArm
          {
            OFFSET 32.7669 0.099144 -1.42434
            CHANNELS 3 Zrotation Xrotation Yrotation
            JOINT LeftHand
            {
              OFFSET 27.5643 0.085362 1.02216
              CHANNELS 3 Zrotation Xrotation Yrotation
              End Site
              {
                OFFSET 16.7443 -0.6 1.50291
              }
            }
          }
        }
      }
      JOINT RightShoulder
      {
        OFFSET -8.99 -0.362252 -0.22
        CHANNELS 3 Zrotation Xrotation Yrotation
        JOINT RightArm
        {
          OFFSET -10.2827 -0.00338 0.322123
          CHANNELS 3 Zrotation Xrotation Yrotation
          JOINT RightForeArm
          {
            OFFSET -32.8971 0.099144 -1.42434
            CHANNELS 3 Zrotation Xrotation Yrotation
            JOINT RightHand
            {
              OFFSET -27.4921 0.085362 1.02216
              CHANNELS 3 Zrotation Xrotation Yrotation
              End Site
              {
                OFFSET -16.6312 -0.6 1.50291
              }
            }
          }
        }
      }
    }
  }
  JOINT LeftUpLeg
  {
    OFFSET 8.9458 -8.66707 0.101652
    CHANNELS 3 Zrotation Xrotation Yrotation
    JOINT LeftLeg
    {
      OFFSET 0 -44.4227 1.3727
      CHANNELS 3 Zrotation Xrotation Yrotation
      JOINT LeftFoot
      {
        OFFSET -0.253549 -42.0924 -1.46059
        CHANNELS 3 Zrotation Xrotation Yrotation
        JOINT LeftToes
        {
          OFFSET -0.04 -4.41509 8.4991
          CHANNELS 3 Zrotation Xrotation Yrotation
          End Site
          {
            OFFSET 0.08 -0.047448 9.77979
          }
        }
      }
    }
  }
}
MOTION
Frames:	19
Frame Time:	0.0166667
46.0974 94.3785 0.448209 7.79305 46.9982 114.786 -45.9598 -6.11051 22.1948 36.6053 45.8573 -53.6571 68.7594 -3.47641 6.84284 0.0462048 0.000533403 0.662642 -28.9856 33.3288 13.9412 2.50929 -2.60173 0.0308455 -26.2341 7.47176 14.743 -2.64834e-031 -1.59028e-015 -9.54166e-015 -58.0581 -33.9179 -18.5744 -10.6548 -45.103 -57.9544 3.82094 22.613 -22.4871 -3.29844 8.49882 6.93934 92.3872 21.4316 68.6076 16.6076 51.2385 86.8525 18.9212 22.3444 1.91744 55.2427 -45.0201 23.32 -70.2321 73.8995 120.658 -75.1289 54.1266 62.6717 4.39965e-008 1.55958e-007 -4.82344e-009 
46.4685 94.9125 1.12773 6.51036 44.1244 118.393 -43.614 -5.58224 20.7844 38.8244 43.981 -56.199 64.1753 -3.79551 6.694 0.0462048 0.000533403 0.662642 -25.5099 31.1981 11.3064 2.33753 -2.42231 0.0206653 -26.5607 10.6009 15.7294 -1.59028e-015 -7.95139e-016 3.18055e-015 -57.0915 -35.5052 -18.6835 -12.9205 -37.1941 -62.3035 3.68042 21.7291 -10.7605 -2.91908 9.8918 6.65833 92.4197 20.2502 68.5972 16.6189 50.9945 86.6654 18.9618 22.2341 1.95759 53.5391 -47.4618 26.2402 -84.4551 76.634 135.797 -71.443 53.6295 59.117 4.39965e-008 1.55958e-007 -4.82343e-009 
46.8519 95.4636 1.59341 5.54263 41.5784 121.415 -41.7077 -5.08448 19.633 40.6036 41.8983 -58.1812 59.3908 -4.17389 6.61739 0.0462048 0.000533403 0.662642 -22.8293 28.8169 9.3257 2.16686 -2.24235 0.0105692 -26.7528 13.6426 16.7705 -1.32417e-031 2.38542e-015 3.18055e-015 -56.546 -40.6595 -19.5255 -17.9719 -24.5466 -66.2988 11.5936 22.1344 -11.9466 -2.69783 11.4805 6.29949 92.518 18.9047 68.644 16.67 50.7385 86.283 19.4313 22.0772 0.732267 50.9945 -49.0372 29.1079 -101.955 78.7477 152.739 -67.487 52.3735 54.4516 4.39965e-008 1.55958e-007 -4.82344e-009 
47.2396 96.0128 1.84212 4.74898 39.3621 124.007 -40.2887 -4.5956 18.7167 42.1285 39.705 -59.7201 54.4391 -4.65965 6.63075 0.0462048 0.000533403 0.662642 -22.1774 27.3888 8.69078 1.91685 -2.00506 0.0231542 -25.4769 15.526 17.024 7.95139e-016 1.59028e-015 -0 -56.9739 -48.4142 -22.7674 -21.2362 -12.8048 -65.2134 -0.813733 12.5457 -13.9766 -1.46381 11.9636 5.34099 92.6196 17.493 68.6992 13.2761 50.8633 84.3895 24.5757 21.5859 -14.2771 47.2552 -49.6678 31.3958 -125.346 80.3681 172.812 -63.8909 49.8961 48.8174 4.39965e-008 1.55958e-007 -4.82344e-009 
47.6255 96.5571 1.94673 4.04365 37.4779 126.277 -39.3289 -4.08938 18.0022 43.4866 37.428 -60.9069 49.2878 -5.27304 6.69546 0.0462048 0.000533403 0.662642 -23.1287 26.8561 9.05169 1.75542 -1.83627 0.0116836 -23.147 16.4435 16.6873 -1.59028e-015 0 -9.54166e-015 -57.6778 -53.7404 -26.6978 -24.0745 -4.97097 -64.0684 8.21735 18.4644 -10.2805 0.51104 11.6068 4.07571 92.6216 15.8926 68.7297 11.687 50.8432 83.913 17.5022 20.7716 5.64096 42.0591 -49.5089 32.9208 -155.544 81.4266 -162.999 -58.5989 46.6698 42.6592 4.39965e-008 1.55958e-007 -4.82344e-009 
47.9866 97.1263 2.04139 3.40094 35.7439 128.402 -38.4691 -3.48849 17.3377 44.3873 34.9929 -61.7526 43.8915 -5.93944 6.68152 0.0462048 0.000533403 0.662642 -24.1042 26.3236 9.36344 1.6698 -1.74268 -0.0116248 -21.0307 17.3601 16.4299 -0 0 6.36111e-015 -59.4227 -58.3891 -31.1496 -27.11 2.14666 -62.71 13.4797 21.8627 -8.6943 2.16547 11.376 2.70973 92.6193 14.305 68.7139 10.5053 50.7992 83.7074 13.8809 19.2131 16.1104 35.6636 -49.0725 33.8511 170.164 80.6567 -133.97 -52.7125 43.0563 36.804 4.39965e-008 1.55958e-007 -4.82344e-009 
48.3204 97.7011 2.13988 2.80355 34.1427 130.409 -37.6286 -2.77617 16.7059 44.8212 32.3676 -62.2632 38.2337 -6.62834 6.52166 0.0462048 0.000533403 0.662642 -25.0646 25.7914 9.60923 1.5076 -1.57214 -0.015449 -18.9682 18.159 16.1582 -9.93923e-017 -1.98785e-016 -0 -62.4028 -62.4179 -36.6441 -31.0753 9.60703 -61.8412 15.5874 21.5858 -11.5608 3.72235 11.1308 1.38408 92.5862 12.6145 68.684 9.66033 50.7242 83.719 13.5024 19.6633 15.6613 28.5023 -48.3751 34.533 144.658 77.9414 -112.146 -45.6993 39.5884 31.5229 4.39965e-008 1.55958e-007 -4.82344e-009 
48.6163 98.2698 2.23709 2.24493 32.6411 132.321 -36.7296 -1.93852 16.0855 44.7755 29.5291 -62.4316 32.3253 -7.27663 6.15192 0.0462048 0.000533403 0.662642 -25.9814 25.2705 9.78534 1.33997 -1.39687 -0.0141402 -17.0333 18.8911 15.9079 -0 -9.93923e-017 -0 -66.7036 -65.8116 -43.2762 -35.7944 17.2439 -61.1878 16.2235 19.7333 -16.2478 5.15316 10.9258 0.190889 92.5214 10.7625 68.676 9.14102 50.6072 83.9166 14.6354 21.5838 9.65798 20.8331 -47.1426 34.8707 127.02 74.5131 -95.9748 -38.1729 36.1758 26.6957 4.39965e-008 1.55958e-007 -4.82344e-009 
48.8696 98.1798 2.36506 1.80917 30.5699 134.405 -35.3709 -1.02229 15.3312 44.4327 26.132 -62.3541 26.2081 -7.74825 5.49375 0.0462048 0.000533403 0.662642 -26.4488 24.828 9.65802 1.1522 -1.19577 -0.0130132 -14.8993 19.3248 15.4442 -7.95139e-016 -3.97569e-016 -3.18055e-015 -75.8845 -69.3296 -54.2661 -41.838 26.2816 -59.6908 13.6525 18.7691 -19.4656 6.97903 10.6353 -0.928131 92.3571 8.76635 68.7196 9.86039 49.3135 82.5819 12.3662 18.9436 5.17902 13.0065 -44.9692 34.4232 105.78 71.6258 -75.4787 -28.9116 32.4018 21.6756 4.39965e-008 1.55958e-007 -4.82344e-009 
49.0221 98.2803 2.39369 1.57494 27.9029 136.569 -33.53 -0.103658 14.4755 43.895 22.1047 -62.0154 19.8802 -7.92869 4.55093 0.0462048 0.000533403 0.662642 -26.3984 24.466 9.22534 0.985901 -1.01801 -0.0175635 -12.6835 19.4511 14.8462 -4.41391e-032 7.95139e-016 3.18055e-015 -92.2092 -72.0317 -71.8185 -49.9146 36.2478 -56.4859 14.3817 18.9666 -18.8547 9.05252 10.1822 -1.98062 92.1761 6.79087 68.7451 11.6574 46.9576 80.1255 12.2051 18.234 4.37041 5.88063 -41.9183 33.3477 86.8581 66.7971 -57.1798 -23.9725 27.3413 17.3698 4.39965e-008 1.55958e-007 -4.82344e-009 
49.0854 98.4451 2.32304 1.61654 24.6657 138.738 -30.9647 0.589037 13.3155 43.0219 17.8527 -61.406 13.4254 -7.76253 3.41716 0.0462048 0.000533403 0.662642 -25.5542 23.8536 8.34782 0.835031 -0.871558 -0.026019 -10.6743 19.6063 14.3068 -2.38542e-015 0 -0 -114.525 -72.5844 -94.5228 -60.5611 45.3177 -49.8127 16.2763 19.635 -16.9185 11.08 9.86427 -2.93825 92.0375 4.86672 68.7771 13.3323 44.9298 78.0946 12.6539 18.0627 5.26453 -0.0517152 -38.4133 32.0263 72.9856 59.8072 -44.1028 -22.8243 21.8862 13.7462 4.39965e-008 1.55958e-007 -4.82344e-009 
49.0508 98.6893 2.17259 1.81408 21.6771 140.573 -28.3958 1.22119 12.4363 41.8448 13.7459 -60.5366 7.11306 -7.15138 2.22187 0.0462048 0.000533403 0.662642 -24.5607 23.3445 7.45112 0.681758 -0.694943 -0.0352955 -9.14549 19.7721 13.8959 7.95139e-016 -1.59028e-015 1.90833e-014 -141.557 -69.8364 -119.661 -74.6339 53.1864 -37.4094 19.7758 21.0887 -13.3236 13.2869 9.64009 -3.40665 91.9442 3.0214 68.8282 14.7413 43.9762 77.1788 14.1198 19.1899 8.86189 -4.64196 -34.2506 30.1902 60.8757 52.3163 -32.4996 -21.8856 16.9251 10.2333 4.39965e-008 1.55958e-007 -4.82344e-009 
48.9078 99.0046 1.96187 2.09036 18.9786 142.113 -25.9733 1.77045 11.8295 40.5184 9.80622 -59.5419 0.972126 -6.16352 1.10732 0.0462048 0.000533403 0.662642 -23.4848 22.9373 6.55898 0.514754 -0.520143 -0.0356777 -8.05129 19.9919 13.6049 1.59028e-015 0 -0 -154.733 -65.8513 -131.561 -86.9823 56.9334 -26.0898 19.5711 20.973 -13.0226 15.072 9.35024 -3.86513 92.2532 1.60493 68.7898 15.992 43.6175 76.8997 14.4998 19.2997 8.23698 -7.85627 -29.8282 27.9865 50.4731 44.9749 -22.525 -19.3643 12.3273 6.75133 4.39965e-008 1.55958e-007 -4.82344e-009 
48.7038 99.3782 1.66569 2.39875 16.5921 143.382 -23.8169 2.25718 11.4914 39.2087 6.07705 -58.5306 -4.98823 -4.96215 0.180199 0.0462048 0.000533403 0.662642 -22.3794 22.6352 5.69853 0.346299 -0.345331 -0.0322486 -7.35984 20.2588 13.4296 -3.18055e-015 1.59028e-015 -0 -161.461 -62.4812 -137.368 -96.3534 58.6708 -17.4459 20.7549 21.4861 -11.327 16.4752 9.02628 -4.27115 92.7693 0.447403 68.7435 17.1317 43.6473 77.0431 15.4662 20.1992 9.59908 -9.64067 -25.3114 25.3371 43.5722 39.1781 -15.2705 -18.3911 7.68891 3.78133 4.39965e-008 1.55958e-007 -4.82344e-009 
48.4754 99.7343 1.30737 2.72131 14.5249 144.384 -21.9082 2.7239 11.3978 37.8669 2.58026 -57.5447 -10.7553 -3.60062 -0.511272 0.0462048 0.000533403 0.662642 -21.2778 22.4412 4.89971 0.177194 -0.170511 -0.0288199 -7.01944 20.5658 13.3555 0 1.59028e-015 -0 -165.329 -59.9804 -140.503 -102.997 59.6527 -11.4453 20.0349 21.1018 -11.3275 17.562 8.69413 -4.59164 93.364 -0.568867 68.7417 18.172 43.8801 77.3751 15.8099 20.3341 8.63599 -10.0568 -20.8727 22.236 37.8031 35.0334 -8.76126 -18.0664 3.02725 1.12341 4.39965e-008 1.55958e-007 -4.82344e-009 
48.2522 100.075 0.898726 3.05867 12.7717 145.127 -20.1987 3.20676 11.5191 36.4556 -0.642507 -56.6191 -16.3163 -2.13795 -0.937844 0.0462048 0.000533403 0.662642 -20.1983 22.3532 4.18742 0.00783311 0.00431282 -0.0288197 -6.974 20.9073 13.3677 0 0 -6.36111e-015 -167.829 -58.2444 -142.369 -107.523 60.4228 -7.49412 20.4039 21.1684 -10.3804 18.4007 8.38206 -4.85354 93.9581 -1.47017 68.778 19.0902 44.2519 77.8368 16.4905 20.9636 9.02323 -9.24054 -16.6542 18.6413 32.0554 32.2939 -2.1943 -18.1189 -1.69987 -1.26408 4.39965e-008 1.55958e-007 -4.82344e-009 
48.0481 100.045 0.107431 3.5034 11.402 145.462 -19.3452 3.13506 11.7977 36.497 -2.08331 -56.2197 -21.2937 -1.7931 -1.13568 0.0462048 0.000533403 0.662642 -18.9667 22.1636 3.63703 0.00614497 0.00431282 -0.0288197 -7.1667 21.2773 13.4493 1.76556e-031 3.18055e-015 -3.18055e-015 -169.645 -57.1207 -143.591 -110.599 61.2029 -4.96095 19.7537 20.7468 -10.3469 19.0256 8.11745 -5.06155 94.5325 -2.28208 68.8518 19.8558 44.7002 78.3572 16.7545 21.078 8.15995 -8.462 -12.5518 14.1429 25.8079 28.3796 6.33987 -17.0656 -2.24509 -1.18275 4.39965e-008 1.55958e-007 -4.82344e-009 
47.8705 99.9694 -0.682769 3.96549 10.3081 145.578 -18.5834 2.64509 12.042 36.636 -2.22817 -56.2588 -25.7322 -1.8962 -1.17354 0.0462048 0.000533403 0.662642 -17.7873 22.0628 3.1862 0.00614497 0.00431282 -0.0288197 -7.54257 21.6686 13.5851 -2.64834e-031 -1.59028e-015 -9.54166e-015 -171.097 -56.4662 -144.47 -112.595 62.039 -3.43533 19.8534 20.6205 -9.73387 19.464 7.92206 -5.2279 95.0875 -3.01254 68.9452 20.437 45.2135 78.9541 17.2 21.5044 8.17729 -6.62174 -8.89396 9.21492 20.0357 25.0937 14.485 -16.367 -2.67567 -1.05551 4.39965e-008 1.55958e-007 -4.82344e-009 
47.701 99.8703 -1.42527 4.44655 9.45789 145.503 -17.9493 2.25707 12.3838 36.8182 -2.22444 -56.2687 -30.1272 -2.01511 -1.22716 0.0462048 0.000533403 0.662642 -16.6713 22.0431 2.82717 0.00614497 0.00431282 -0.0288197 -8.04824 22.0709 13.7615 -0 0 3.18055e-015 -172.319 -56.171 -145.141 -113.778 62.9334 -2.64417 19.3648 20.2215 -9.66344 19.7404 7.80724 -5.33801 95.6373 -3.68183 69.0529 20.8132 45.7669 79.6148 17.3168 21.5671 7.54836 -4.07786 -5.91591 3.77191 14.3122 21.9225 22.674 -15.627 -3.09505 -0.943816 4.39965e-008 1.55958e-007 -4.82344e-009 
